<svg xmlns="http://www.w3.org/2000/svg" width="23.863" height="23.863" viewBox="22.372 15.61 23.863 23.863"><g data-name="Mask Group 2" transform="translate(22.372 14.914)" clip-path="url(&quot;#a&quot;)"><g data-name="Light"><g data-name="OneArt-_x2022_-Desktop-_x2022_-Light"><g data-name="Block"><g data-name="TVL"><g data-name="Icons_x2F_Icon-24_x2F_cake"><path d="M0 12.577a11.932 11.932 0 1 1 0 .1z" fill="#f3ba2f" fill-rule="evenodd" data-name="Oval"/><g data-name="Icons_x2F_icon-24_x2F_networks_x2F_binance_x5F_smart_x5F_chain"><path d="m15.026 13.946 1.8 1.795-4.893 4.887-4.887-4.887 1.8-1.795 3.087 3.088 3.093-3.088Zm-3.093-3.093 1.826 1.826-1.826 1.826-1.82-1.82v-.006l.32-.32.156-.156 1.344-1.35Zm-6.154.026 1.8 1.8-1.8 1.795-1.8-1.8 1.8-1.795Zm12.309 0 1.8 1.8-1.8 1.795-1.8-1.8 1.8-1.795Zm-6.155-6.154 4.888 4.887-1.8 1.8-3.088-3.093-3.087 3.088-1.8-1.795 4.887-4.887Z" fill="#131415" fill-rule="evenodd" data-name="Combined-Shape"/></g></g></g></g></g></g></g><defs><clipPath id="a"><path d="M0 12.4a12 12.5 0 1 1 0 .1z" data-name="Ellipse 1" transform="translate(-.371 .086)"/></clipPath></defs></svg>