<svg xmlns="http://www.w3.org/2000/svg" width="672.975" height="128.443" viewBox="1554.568 260.713 672.975 128.443"><g data-name="CompositeLayer"><path d="M1554.569 301.491v-10.194h25.486v-5.098h-20.39l-5.096-5.097V265.81l5.097-5.097h35.68l-5.097 10.195h-25.486v5.097h25.486v15.292l-10.194 10.194h-25.486Zm58.06 0v-30.583h-12.743v-10.195h35.681v10.195h-12.743v30.583h-10.195Zm27.478 0v-40.778h30.583v10.195h-20.389v5.097h20.39v10.194h-20.39v5.098h20.39v10.194h-30.584Zm60.61-25.486v-5.097h-15.292v5.097h15.291Zm-25.487 25.486v-40.778h30.584l5.097 5.097v15.292l-5.097 5.097h-20.39v15.292h-10.194Zm71.753 0v-40.778h10.194v40.778h-10.194Zm14.734 0v-40.778h12.743l12.743 25.486v-25.486h10.195v40.778h-12.743l-12.744-25.486v25.486h-10.194Zm52.964 0v-30.583h-12.744v-10.195h35.681v10.195h-12.743v30.583h-10.194Zm52.963-10.194v-20.39h-15.292v20.39h15.292Zm-20.389 10.194-5.097-5.097V265.81l5.097-5.097h25.486l5.098 5.097v30.584l-5.098 5.097h-25.486Zm79.399 0v-30.583h-12.743v-10.195h35.68v10.195h-12.743v30.583h-10.194Zm27.477 0v-40.778h10.195v15.292h15.291v-15.292h10.195v40.778h-10.195V286.2h-15.291v15.292h-10.195Zm40.22 0v-40.778h30.584v10.195h-20.389v5.097h20.39v10.194h-20.39v5.098h20.39v10.194h-30.584Zm66.656 0v-40.778h35.68l-5.096 10.195h-20.39v5.097h20.39v10.194h-20.39v15.292h-10.194Zm37.672 0 20.389-40.778h10.195l20.389 40.778h-12.744l-2.548-5.097h-17.84l5.097-10.195h7.646l-5.098-10.194-12.743 25.486h-12.743Zm52.964 0v-40.778h12.743l12.743 25.486v-25.486h10.194v40.778h-12.743l-12.743-25.486v25.486h-10.194Zm40.22 0v-10.194h25.486v-5.098h-20.389l-5.097-5.097V265.81l5.097-5.097h30.584v10.195h-25.486v5.097h25.486v15.292l-10.195 10.194h-25.486Z" fill="#fff" fill-rule="evenodd" data-name="Path 26"/><path d="M1558.381 389.156v-71.363h53.522l8.92 8.92v26.762l-8.92 8.92h-4.46l13.38 26.761h-17.84l-17.84-35.681v-8.92h17.84v-8.92h-26.761v53.521h-17.84Zm70.387 0v-71.363h53.522v17.841h-35.681v8.92h35.68v17.841h-35.68v8.92h35.68v17.841h-53.521Zm97.148 0-35.681-71.363h22.3l20.071 40.142 20.07-40.142h22.301l-35.68 71.363h-13.381Zm106.068-17.84v-35.682h-26.761v35.681h26.76Zm-35.681 17.84-8.92-8.92v-53.522l8.92-8.92h44.601l8.92 8.92v53.522l-8.92 8.92h-44.601Zm61.466 0v-71.363h17.84v53.522h44.602l-8.92 17.841h-53.522Zm79.307 0-8.92-8.92v-62.443h17.84v53.522h26.761v-53.522h17.841v53.522l-8.92 17.841h-44.602Zm83.768 0v-53.522h-22.301v-17.84h62.442v17.84h-22.3v53.522h-17.841Zm48.086 0v-71.363h17.84v71.363h-17.84Zm70.386-17.84v-35.682h-26.76v35.681h26.76Zm-35.68 17.84-8.921-8.92v-53.522l8.92-8.92h44.602l8.92 8.92v53.522l-8.92 8.92h-44.602Zm61.466 0v-71.363h22.3l22.301 44.602v-44.602h17.84v71.363h-22.3l-22.3-44.602v44.602h-17.841Z" fill="#ff8813" fill-rule="evenodd" data-name="Path 27"/></g></svg>