<svg xmlns="http://www.w3.org/2000/svg" width="37.83" height="38.2" viewBox="-8.038 18.996 37.83 38.2"><g data-name="Group 70"><g data-name="Group 27"><g data-name="Group 28"><g data-name="Group 2" transform="translate(0 26.858)" clip-path="url(&quot;#a&quot;)"><path d="M.338.338 28.833 0l-.338 29.168L0 29.506.338.338Z" fill-rule="evenodd" fill="url(&quot;#b&quot;)" transform="rotate(-22.15 3.668 22.037)" data-name="Path 9"/></g></g></g><path d="M15.072 38.082c-.352-.511-.788-.882-1.308-1.111a7.62 7.62 0 0 0-1.06-.358 20.768 20.768 0 0 0-1.389-.323c-.666-.132-1.093-.289-1.283-.47a.887.887 0 0 1-.284-.667c0-.654.505-.981 1.515-.981.953 0 1.575.43 1.869 1.292l1.475-.493.694-.23a4.717 4.717 0 0 0-.108-.275c-.584-1.354-1.707-2.109-3.37-2.266v-1.342h-1.378v1.36c-.946.115-1.718.49-2.315 1.124-.597.635-.895 1.4-.895 2.296 0 .764.236 1.432.71 2.003.377.456 1.124.838 2.239 1.143.282.078.587.15.916.219.751.148 1.256.311 1.515.49a.857.857 0 0 1 .387.748c0 .316-.145.585-.435.809-.29.224-.727.335-1.312.335-1.211 0-1.952-.507-2.221-1.523l-.136.031-2.231.511c.098.39.235.743.411 1.058.628 1.122 1.75 1.768 3.367 1.938v1.627h1.378V43.4c1.265-.12 2.211-.533 2.838-1.237.627-.703.94-1.492.94-2.366 0-.632-.176-1.203-.529-1.715" fill="#fff" fill-rule="evenodd" data-name="Path 10"/></g><defs><radialGradient fx="-.55" fy=".286" cx="-.55" cy=".286" fr="0" r="1.385" gradientTransform="matrix(1.00005 0 0 -1 0 1.767)" id="b"><stop stop-color="#f96815" offset="0"/><stop stop-color="#f96815" offset="0"/><stop stop-color="#f7931a" offset="1"/></radialGradient><clipPath id="a"><path d="M10.866 0C5.992.001 1.557 3.413.326 8.52A11.617 11.617 0 0 0 0 11.212v.07c.015 5.024 3.313 9.587 8.245 10.857a10.55 10.55 0 0 0 2.62.337h.032c4.87-.007 9.3-3.417 10.53-8.52.218-.901.324-1.804.327-2.694v-.064C21.739 6.173 18.44 1.607 13.507.337A10.53 10.53 0 0 0 10.87 0h-.005Z" data-name="Path 1"/></clipPath></defs></svg>