<svg xmlns="http://www.w3.org/2000/svg" width="26" height="25" viewBox="22.188 47.64 26 25"><g data-name="Group 67"><path d="M22.188 60.09a13 12.5 0 1 1 0 .1z" fill="#ff8813" fill-rule="evenodd" data-name="Ellipse 5"/><g data-name="Group 66"><path d="M41.603 53.384a.49.49 0 0 1 .319.128.39.39 0 0 1 0 .381l-5.031 8.92 3.184 5.859a.421.421 0 0 1 0 .385.498.498 0 0 1-.319.128h-2.294c-.318 0-.509-.257-.637-.447l-3.247-5.925c.19-.253 5.098-8.982 5.098-8.982.124-.252.318-.447.637-.447h2.29Zm-9.553 3.122c.32 0 .51.257.638.447l1.59 2.737c-.128.129-2.484 4.332-2.484 4.332-.129.194-.32.447-.638.447h-2.228a.458.458 0 0 1-.319-.128.39.39 0 0 1 0-.381l2.356-4.27-1.527-2.675a.39.39 0 0 1 0-.38.498.498 0 0 1 .318-.129h2.294Z" fill="#fff" fill-rule="evenodd" data-name="Path 29"/></g></g></svg>