<svg xmlns="http://www.w3.org/2000/svg" width="25.354" height="25.354" viewBox="17.897 14.914 25.354 25.354"><g data-name="Mask Group 1" transform="translate(17.897 14.914)" clip-path="url(&quot;#a&quot;)"><g data-name="tether"><path d="M12.677 0c7.001 0 12.678 5.676 12.678 12.677 0 7.001-5.677 12.678-12.678 12.678C5.677 25.355 0 19.68 0 12.677 0 5.675 5.675 0 12.677 0" fill="#53ae94" fill-rule="evenodd" data-name="Path 31"/><path d="M14.242 10.988V9.102h4.312V6.23H6.811v2.873h4.313v1.885c-3.505.16-6.14.855-6.14 1.686 0 .832 2.636 1.526 6.14 1.688v6.041h3.119v-6.041c3.499-.162 6.13-.855 6.13-1.686s-2.631-1.525-6.13-1.686m0 2.86v-.001c-.088.005-.54.032-1.547.032-.804 0-1.37-.022-1.57-.033v.003c-3.097-.138-5.409-.677-5.409-1.322s2.312-1.184 5.409-1.321v2.105c.203.014.783.049 1.583.049a18.1 18.1 0 0 0 1.534-.049v-2.105c3.091.137 5.397.677 5.397 1.32s-2.307 1.183-5.397 1.32" fill="#fff" fill-rule="evenodd" data-name="Path 32"/></g></g><defs><clipPath id="a"><path d="M0 12.4a13 12.5 0 1 1 0 .1z" data-name="Ellipse 2" transform="translate(-.323 .086)"/></clipPath></defs></svg>